name rise49.8558peak67.6521fall70.3087.mot
datacolumns 19
datarows 18
range 20.21658600000000 20.24492200000000
endheader
time	ground_force1_vx	ground_force1_vy	ground_force1_vz	ground_force1_px	ground_force1_py	ground_force1_pz	ground_force2_vx	ground_force2_vy	ground_force2_vz	ground_force2_px	ground_force2_py	ground_force2_pz	ground_torque1_x	ground_torque1_y	ground_torque1_z	ground_torque2_x	ground_torque2_y	ground_torque2_z	
20.21658600000000	1.00833300000000	698.60483999999997	43.19854400000000	0.25393800000000	0.00000000000000	0.13869700000000	0.00000000000000	0.00000000000000	0.00000000000000	0.00000000000000	0.00000000000000	0.00000000000000	0.00000000000000	20.43412800000000	0.00000000000000	0.00000000000000	0.00000000000000	0.00000000000000	
20.21826100000000	0.55274700000000	699.08484199999998	43.24594900000000	0.25254000000000	0.00000000000000	0.13874000000000	0.00000000000000	0.00000000000000	0.00000000000000	0.00000000000000	0.00000000000000	0.00000000000000	0.00000000000000	20.50590500000000	0.00000000000000	0.00000000000000	0.00000000000000	0.00000000000000	
20.21991900000000	0.08771600000000	699.58495100000005	43.29592300000000	0.25113000000000	0.00000000000000	0.13878300000000	0.00000000000000	0.00000000000000	0.00000000000000	0.00000000000000	0.00000000000000	0.00000000000000	0.00000000000000	20.58181000000000	0.00000000000000	0.00000000000000	0.00000000000000	0.00000000000000	
20.22158500000000	-0.38692100000000	700.10446800000000	43.34826200000000	0.24970700000000	0.00000000000000	0.13882700000000	0.00000000000000	0.00000000000000	0.00000000000000	0.00000000000000	0.00000000000000	0.00000000000000	0.00000000000000	20.66177600000000	0.00000000000000	0.00000000000000	0.00000000000000	0.00000000000000	
20.22325900000000	-0.87129000000000	700.64277900000002	43.40278100000000	0.24827300000000	0.00000000000000	0.13887100000000	0.00000000000000	0.00000000000000	0.00000000000000	0.00000000000000	0.00000000000000	0.00000000000000	0.00000000000000	20.74574100000000	0.00000000000000	0.00000000000000	0.00000000000000	0.00000000000000	
20.22492000000000	-1.36548100000000	701.19935899999996	43.45931100000000	0.24682900000000	0.00000000000000	0.13891600000000	0.00000000000000	0.00000000000000	0.00000000000000	0.00000000000000	0.00000000000000	0.00000000000000	0.00000000000000	20.83364400000000	0.00000000000000	0.00000000000000	0.00000000000000	0.00000000000000	
20.22659300000000	-1.86955200000000	701.77377300000001	43.51770400000000	0.24537700000000	0.00000000000000	0.13896000000000	0.00000000000000	0.00000000000000	0.00000000000000	0.00000000000000	0.00000000000000	0.00000000000000	0.00000000000000	20.92542700000000	0.00000000000000	0.00000000000000	0.00000000000000	0.00000000000000	
20.22826100000000	-2.38352700000000	702.36567600000001	43.57782800000000	0.24391800000000	0.00000000000000	0.13900500000000	0.00000000000000	0.00000000000000	0.00000000000000	0.00000000000000	0.00000000000000	0.00000000000000	0.00000000000000	21.02103500000000	0.00000000000000	0.00000000000000	0.00000000000000	0.00000000000000	
20.22992400000000	-2.90739400000000	702.97481800000003	43.63957000000000	0.24245200000000	0.00000000000000	0.13904900000000	0.00000000000000	0.00000000000000	0.00000000000000	0.00000000000000	0.00000000000000	0.00000000000000	0.00000000000000	21.12041200000000	0.00000000000000	0.00000000000000	0.00000000000000	0.00000000000000	
20.23159500000000	-3.44111100000000	703.60104300000000	43.70283800000000	0.24098200000000	0.00000000000000	0.13909300000000	0.00000000000000	0.00000000000000	0.00000000000000	0.00000000000000	0.00000000000000	0.00000000000000	0.00000000000000	21.22350800000000	0.00000000000000	0.00000000000000	0.00000000000000	0.00000000000000	
20.23325400000000	-3.98460000000000	704.24428799999998	43.76755500000000	0.23950900000000	0.00000000000000	0.13913600000000	0.00000000000000	0.00000000000000	0.00000000000000	0.00000000000000	0.00000000000000	0.00000000000000	0.00000000000000	21.33027200000000	0.00000000000000	0.00000000000000	0.00000000000000	0.00000000000000	
20.23492200000000	-4.53775400000000	704.90458699999999	43.83366500000000	0.23803400000000	0.00000000000000	0.13917900000000	0.00000000000000	0.00000000000000	0.00000000000000	0.00000000000000	0.00000000000000	0.00000000000000	0.00000000000000	21.44065400000000	0.00000000000000	0.00000000000000	0.00000000000000	0.00000000000000	
20.23659500000000	-5.10043300000000	705.58206700000005	43.90112900000000	0.23655800000000	0.00000000000000	0.13922200000000	0.00000000000000	0.00000000000000	0.00000000000000	0.00000000000000	0.00000000000000	0.00000000000000	0.00000000000000	21.55460600000000	0.00000000000000	0.00000000000000	0.00000000000000	0.00000000000000	
20.23826100000000	-5.67246900000000	706.27694499999996	43.96992600000000	0.23508400000000	0.00000000000000	0.13926300000000	0.00000000000000	0.00000000000000	0.00000000000000	0.00000000000000	0.00000000000000	0.00000000000000	0.00000000000000	21.67208200000000	0.00000000000000	0.00000000000000	0.00000000000000	0.00000000000000	
20.23992800000000	-6.25366200000000	706.98953300000005	44.04005300000000	0.23361400000000	0.00000000000000	0.13930400000000	0.00000000000000	0.00000000000000	0.00000000000000	0.00000000000000	0.00000000000000	0.00000000000000	0.00000000000000	21.79303300000000	0.00000000000000	0.00000000000000	0.00000000000000	0.00000000000000	
20.24159400000000	-6.84378800000000	707.72022800000002	44.11152500000000	0.23214700000000	0.00000000000000	0.13934400000000	0.00000000000000	0.00000000000000	0.00000000000000	0.00000000000000	0.00000000000000	0.00000000000000	0.00000000000000	21.91741300000000	0.00000000000000	0.00000000000000	0.00000000000000	0.00000000000000	
20.24325300000000	-7.44259300000000	708.46951600000000	44.18437500000000	0.23068700000000	0.00000000000000	0.13938400000000	0.00000000000000	0.00000000000000	0.00000000000000	0.00000000000000	0.00000000000000	0.00000000000000	0.00000000000000	22.04517500000000	0.00000000000000	0.00000000000000	0.00000000000000	0.00000000000000	
20.24492200000000	-8.04979800000000	709.23796200000004	44.25865100000000	0.22923400000000	0.00000000000000	0.13942100000000	0.00000000000000	0.00000000000000	0.00000000000000	0.00000000000000	0.00000000000000	0.00000000000000	0.00000000000000	22.17627300000000	0.00000000000000	0.00000000000000	0.00000000000000	0.00000000000000	
